<svg width="430" height="118" viewBox="0 0 430 118" fill="none" xmlns="http://www.w3.org/2000/svg">
<rect x="82.5" y="27.5" width="195" height="68" stroke="black" stroke-width="5"/>
<path d="M111.454 81L109.854 71.72H101.406L99.9343 81H94.1743L101.278 40.936H109.662L117.278 81H111.454ZM102.11 67.048H109.086L105.438 45.928L102.11 67.048ZM138.511 59.624H132.815V56.296C132.815 55.528 132.687 55.0373 132.431 54.824C132.175 54.568 131.663 54.44 130.895 54.44H128.143C127.375 54.44 126.863 54.568 126.607 54.824C126.351 55.0373 126.223 55.528 126.223 56.296V74.472C126.223 75.24 126.351 75.752 126.607 76.008C126.863 76.2213 127.375 76.328 128.143 76.328H130.895C131.663 76.328 132.175 76.2213 132.431 76.008C132.687 75.752 132.815 75.24 132.815 74.472V71.144H138.511V75.368C138.511 79.1227 136.506 81 132.495 81H126.415C122.447 81 120.463 79.1227 120.463 75.368V55.464C120.463 51.6667 122.447 49.768 126.415 49.768H132.495C136.506 49.768 138.511 51.6667 138.511 55.464V59.624ZM154.933 49.768H160.693V81H154.933V78.504C154.378 80.168 153.055 81 150.965 81H148.661C144.821 81 142.901 79.1227 142.901 75.368V55.464C142.901 51.6667 144.821 49.768 148.661 49.768H150.965C153.055 49.768 154.378 50.6 154.933 52.264V49.768ZM150.581 76.328H152.821C153.589 76.328 154.122 76.1573 154.421 75.816C154.762 75.4747 154.933 74.8987 154.933 74.088V56.68C154.933 55.8693 154.762 55.2933 154.421 54.952C154.122 54.6107 153.589 54.44 152.821 54.44H150.581C149.813 54.44 149.301 54.568 149.045 54.824C148.789 55.0373 148.661 55.528 148.661 56.296V74.472C148.661 75.24 148.789 75.752 149.045 76.008C149.301 76.2213 149.813 76.328 150.581 76.328ZM177.995 38.184H183.755V81H177.995V78.504C177.441 80.168 176.118 81 174.027 81H171.723C167.883 81 165.963 79.1227 165.963 75.368V55.4C165.963 51.6027 167.883 49.704 171.723 49.704H174.027C176.118 49.704 177.441 50.536 177.995 52.2V38.184ZM173.643 76.328H175.883C176.651 76.328 177.185 76.1573 177.483 75.816C177.825 75.4747 177.995 74.8987 177.995 74.088V56.616C177.995 55.8053 177.825 55.2293 177.483 54.888C177.185 54.5467 176.651 54.376 175.883 54.376H173.643C172.875 54.376 172.363 54.504 172.107 54.76C171.851 55.016 171.723 55.5067 171.723 56.232V74.472C171.723 75.24 171.851 75.752 172.107 76.008C172.363 76.2213 172.875 76.328 173.643 76.328ZM195.234 49.768H201.506C205.516 49.768 207.522 51.6667 207.522 55.464V67.176H194.914V74.6C194.914 75.3253 195.042 75.816 195.298 76.072C195.554 76.328 196.066 76.456 196.834 76.456H199.778C200.546 76.456 201.058 76.328 201.314 76.072C201.57 75.816 201.698 75.304 201.698 74.536V71.976H207.33V75.368C207.33 79.1227 205.346 81 201.378 81H195.234C191.266 81 189.282 79.1227 189.282 75.368V55.464C189.282 51.6667 191.266 49.768 195.234 49.768ZM194.914 62.952H201.826V56.168C201.826 55.4427 201.698 54.952 201.442 54.696C201.228 54.44 200.738 54.312 199.97 54.312H196.834C196.066 54.312 195.554 54.44 195.298 54.696C195.042 54.952 194.914 55.4427 194.914 56.168V62.952ZM234.232 49.768H236.472C240.312 49.768 242.232 51.6667 242.232 55.464V81H236.472V56.296C236.472 55.528 236.344 55.0373 236.088 54.824C235.875 54.568 235.384 54.44 234.616 54.44H232.312C230.947 54.44 230.264 55.1867 230.264 56.68V81H224.504V56.296C224.504 55.528 224.376 55.0373 224.12 54.824C223.864 54.568 223.352 54.44 222.584 54.44H220.344C219.576 54.44 219.022 54.6107 218.68 54.952C218.382 55.2933 218.232 55.8693 218.232 56.68V81H212.472V49.768H218.232V52.264C218.787 50.6 220.11 49.768 222.2 49.768H224.44C227.171 49.768 228.942 50.728 229.752 52.648C230.264 50.728 231.758 49.768 234.232 49.768ZM252.143 89.832H248.303V85.224H250.927C252.761 85.224 253.871 84.52 254.255 83.112L254.895 80.488H251.759L245.231 49.768H251.119L255.855 75.944L260.271 49.768H266.095L259.503 84.008C258.564 87.8907 256.111 89.832 252.143 89.832Z" fill="black"/>
<path d="M5.184 31.904H26.112C32.064 31.904 35.04 34.72 35.04 40.352V83.552C35.04 89.184 32.064 92 26.112 92H5.184V31.904ZM26.304 82.4V41.504C26.304 40.352 26.112 39.616 25.728 39.296C25.344 38.912 24.576 38.72 23.424 38.72H13.92V85.184H23.424C24.576 85.184 25.344 85.024 25.728 84.704C26.112 84.32 26.304 83.552 26.304 82.4ZM65.6745 55.232V41.504C65.6745 40.352 65.4825 39.616 65.0985 39.296C64.7145 38.912 63.9465 38.72 62.7945 38.72H53.1945V58.016H62.7945C63.9465 58.016 64.7145 57.856 65.0985 57.536C65.4825 57.152 65.6745 56.384 65.6745 55.232ZM65.6745 82.4V67.616C65.6745 66.464 65.4825 65.728 65.0985 65.408C64.7145 65.024 63.9465 64.832 62.7945 64.832H53.1945V85.184H62.7945C63.9465 85.184 64.7145 85.024 65.0985 84.704C65.4825 84.32 65.6745 83.552 65.6745 82.4ZM44.5545 31.904H65.3865C71.4025 31.904 74.4105 34.72 74.4105 40.352V55.616C74.4105 59.008 73.1305 60.992 70.5705 61.568C73.1305 62.208 74.4105 64.064 74.4105 67.136V83.552C74.4105 89.184 71.4025 92 65.3865 92H44.5545V31.904Z" fill="black"/>
<path d="M5.184 31.904H26.112C32.064 31.904 35.04 34.72 35.04 40.352V83.552C35.04 89.184 32.064 92 26.112 92H5.184V31.904ZM26.304 82.4V41.504C26.304 40.352 26.112 39.616 25.728 39.296C25.344 38.912 24.576 38.72 23.424 38.72H13.92V85.184H23.424C24.576 85.184 25.344 85.024 25.728 84.704C26.112 84.32 26.304 83.552 26.304 82.4ZM65.6745 55.232V41.504C65.6745 40.352 65.4825 39.616 65.0985 39.296C64.7145 38.912 63.9465 38.72 62.7945 38.72H53.1945V58.016H62.7945C63.9465 58.016 64.7145 57.856 65.0985 57.536C65.4825 57.152 65.6745 56.384 65.6745 55.232ZM65.6745 82.4V67.616C65.6745 66.464 65.4825 65.728 65.0985 65.408C64.7145 65.024 63.9465 64.832 62.7945 64.832H53.1945V85.184H62.7945C63.9465 85.184 64.7145 85.024 65.0985 84.704C65.4825 84.32 65.6745 83.552 65.6745 82.4ZM44.5545 31.904H65.3865C71.4025 31.904 74.4105 34.72 74.4105 40.352V55.616C74.4105 59.008 73.1305 60.992 70.5705 61.568C73.1305 62.208 74.4105 64.064 74.4105 67.136V83.552C74.4105 89.184 71.4025 92 65.3865 92H44.5545V31.904Z" fill="#57B38D"/>
</svg>
